<svg width="33" height="33" viewBox="0 0 33 33" fill="none" xmlns="http://www.w3.org/2000/svg">
<path d="M17 8.81935C16.2678 8.06007 15.125 6.8751 15.125 6.8751H8.25C7.52065 6.8751 6.82118 7.16483 6.30546 7.68056C5.78973 8.19628 5.5 8.89576 5.5 9.6251V24.7501C5.5 25.4794 5.78973 26.1789 6.30546 26.6946C6.82118 27.2104 7.52065 27.5001 8.25 27.5001H23.375C24.1043 27.5001 24.8038 27.2104 25.3195 26.6946C25.8353 26.1789 26.125 25.4794 26.125 24.7501V17.8751L24.5 16M24.1807 4.93085C24.4344 4.6682 24.7379 4.4587 25.0734 4.31457C25.4089 4.17045 25.7698 4.09459 26.1349 4.09141C26.5 4.08824 26.8622 4.15782 27.2001 4.29609C27.5381 4.43436 27.8451 4.63856 28.1033 4.89676C28.3615 5.15497 28.5657 5.46201 28.704 5.79998C28.8423 6.13794 28.9119 6.50006 28.9087 6.8652C28.9055 7.23035 28.8297 7.5912 28.6855 7.92671C28.5414 8.26222 28.3319 8.56567 28.0693 8.81935L16.2635 20.6251H12.375V16.7366L24.1807 4.93085Z" stroke="#35415A" stroke-width="2" stroke-linecap="round" stroke-linejoin="round"/>
</svg>
