<svg width="43" height="43" viewBox="0 0 43 43" fill="none" xmlns="http://www.w3.org/2000/svg">
<path d="M26.875 21.5C26.875 22.9255 26.3087 24.2927 25.3007 25.3007C24.2927 26.3087 22.9255 26.875 21.5 26.875C20.0745 26.875 18.7073 26.3087 17.6993 25.3007C16.6913 24.2927 16.125 22.9255 16.125 21.5C16.125 20.0745 16.6913 18.7073 17.6993 17.6993C18.7073 16.6913 20.0745 16.125 21.5 16.125C22.9255 16.125 24.2927 16.6913 25.3007 17.6993C26.3087 18.7073 26.875 20.0745 26.875 21.5V21.5Z" stroke="white" stroke-width="2" stroke-linecap="round" stroke-linejoin="round"/>
<path d="M4.4043 21.5C6.68688 14.2312 13.4791 8.95834 21.5004 8.95834C29.5235 8.95834 36.3139 14.2312 38.5965 21.5C36.3139 28.7688 29.5235 34.0417 21.5004 34.0417C13.4791 34.0417 6.68688 28.7688 4.4043 21.5V21.5Z" stroke="white" stroke-width="2" stroke-linecap="round" stroke-linejoin="round"/>
</svg>
