<svg width="22" height="22" viewBox="0 0 22 22" fill="none" xmlns="http://www.w3.org/2000/svg">
<path fill-rule="evenodd" clip-rule="evenodd" d="M11 21C16.5228 21 21 16.5228 21 11C21 5.47715 16.5228 1 11 1C5.47715 1 1 5.47715 1 11C1 16.5228 5.47715 21 11 21ZM11 22C17.0751 22 22 17.0751 22 11C22 4.92487 17.0751 0 11 0C4.92487 0 0 4.92487 0 11C0 17.0751 4.92487 22 11 22Z" fill="#35415A"/>
<path fill-rule="evenodd" clip-rule="evenodd" d="M11.1665 6C11.4426 6 11.6665 6.22386 11.6665 6.5V15.5C11.6665 15.7761 11.4426 16 11.1665 16C10.8904 16 10.6665 15.7761 10.6665 15.5V6.5C10.6665 6.22386 10.8904 6 11.1665 6Z" fill="#35415A"/>
<path fill-rule="evenodd" clip-rule="evenodd" d="M6 10.8335C6 10.5574 6.22386 10.3335 6.5 10.3335H15.5C15.7761 10.3335 16 10.5574 16 10.8335C16 11.1096 15.7761 11.3335 15.5 11.3335H6.5C6.22386 11.3335 6 11.1096 6 10.8335Z" fill="#35415A"/>
</svg>
